<svg xmlns="http://www.w3.org/2000/svg" viewBox="0 0 289.9 274.62"><defs><linearGradient id="g" x1="0%" y1="0%" x2="100%" y2="100%"><stop offset="0%" stop-color="#fa812f"/><stop offset="50%" stop-color="#c7253e"/><stop offset="100%" stop-color="#821131"/></linearGradient></defs><rect x=".5" y=".5" width="288.9" height="273.62" rx="14.44" ry="14.44" fill="#fef3e2" stroke="#c7253e" stroke-miterlimit="10" stroke-width="4"/><path fill="#1a1a1a" d="M174.51,180.15c-16.34-36.26-32.68-72.53-49.03-108.79-12.35,34.31-26.35,76.24-37.06,108.79-2.06-.19-5.15-.39-7.82-.39s-5.15.19-7.62.39c-10.5-38.02-24.29-80.72-36.85-119.91-2.88-7.21-7.82-11.12-14-12.09l.41-3.12c5.76.58,11.53.78,18.73.78h.82c9.27,0,14.82-.19,23.06-.78l.62,3.12c-8.23.78-10.29,5.65-7.62,14.82,8.85,31.2,20.18,69.41,28.41,93.59,12.76-34.9,26.35-75.06,37.06-111.13,2.47.19,5.15.19,7.41.19,2.47,0,5.15,0,7.41-.19,18.28,31.48,36.56,62.96,54.84,94.43-6.26,13.43-12.52,26.86-18.78,40.29Z"/><path fill="url(#g)" d="M115.34,100.11c10.22,21,20.72,42.19,31.51,63.55,9.21,18.25,18.45,36.27,27.71,54.05,19.83-38.74,39.05-80.03,49.79-106.05,5.16.39,10.12.59,15.08.59s9.3-.19,14.05-.59l.62,3.13c-7.64.59-11.98,6.07-11.36,17.22,1.24,22.89,6.82,63.2,12.19,99.98,1.24,9.39,5.58,11.74,11.36,12.33l-.41,3.13c-6.4-.58-13.43-.78-21.07-.78s-15.7.2-21.28.78l-.41-3.13c8.06-1.17,11.36-4.89,10.74-12.52-2.69-31.11-7.23-66.72-10.95-90.79-13.64,26.8-33.67,68.48-51.85,107.61h-4.55c-21.47-36.55-42.93-73.1-64.4-109.66,4.41-12.95,8.83-25.91,13.24-38.86Z"/></svg>
